<svg width="24" height="24" viewBox="0 0 24 24" fill="none" xmlns="http://www.w3.org/2000/svg">
<path d="M19.9863 7.79115L18.8123 5.06697L15.9727 3.81385L18.8123 2.58797L19.9863 0L21.1604 2.58797L24 3.81385L21.1604 5.06697L19.9863 7.79115ZM19.9863 24L18.8123 21.3848L15.9727 20.1589L18.8123 18.933L19.9863 16.1816L21.1604 18.933L24 20.1589L21.1604 21.3848L19.9863 24ZM8 19.8048L5.48805 14.4381L0 11.9864L5.48805 9.53462L8 4.19523L10.5392 9.53462L16 11.9864L10.5392 14.4381L8 19.8048ZM8 15.773L9.31058 13.1578L11.9863 11.9864L9.31058 10.815L8 8.19977L6.71672 10.815L4.01365 11.9864L6.71672 13.1578L8 15.773Z" fill="url(#paint0_linear_25_236)"/>
<defs>
<linearGradient id="paint0_linear_25_236" x1="12" y1="0" x2="12" y2="24" gradientUnits="userSpaceOnUse">
<stop stop-color="#A839FF"/>
</linearGradient>
</defs>
</svg>
