<svg width="313" height="449" viewBox="0 0 313 449" fill="none" xmlns="http://www.w3.org/2000/svg">
<path d="M66.56 0.207997L64.112 17.056H28.976V40.96H59.648V57.52H28.976V83.008H66.56V100H5.36V0.207997H66.56ZM127.237 46.144L156.037 100H130.261L113.125 61.984L96.2769 100H71.2209L99.1569 47.008L73.3809 0.207997H99.0129L113.413 32.176L128.533 0.207997H153.589L127.237 46.144ZM197.085 0.207997C210.237 0.207997 220.461 2.944 227.757 8.41599C235.053 13.888 238.701 22 238.701 32.752C238.701 43.984 235.101 52.48 227.901 58.24C220.797 63.904 211.245 66.736 199.245 66.736H188.445V100H164.829V0.207997H197.085ZM197.229 49.744C202.797 49.744 207.021 48.448 209.901 45.856C212.877 43.168 214.365 38.8 214.365 32.752C214.365 22.288 208.509 17.056 196.797 17.056H188.445V49.744H197.229ZM312.373 0.207997L309.925 17.056H274.789V40.96H305.461V57.52H274.789V83.008H312.373V100H251.173V0.207997H312.373ZM38.192 234.84H28.976V273H5.36V173.208H38.048C51.68 173.208 61.904 175.704 68.72 180.696C75.632 185.688 79.088 193.32 79.088 203.592C79.088 210.024 77.552 215.4 74.48 219.72C71.408 223.944 66.56 227.544 59.936 230.52L85.28 273H58.64L38.192 234.84ZM28.976 218.568H38.912C44.192 218.568 48.128 217.368 50.72 214.968C53.408 212.568 54.752 208.776 54.752 203.592C54.752 198.792 53.312 195.288 50.432 193.08C47.648 190.872 43.328 189.768 37.472 189.768H28.976V218.568ZM117.851 173.208V273H94.235V173.208H117.851ZM197.623 173.208L195.175 190.056H160.039V213.96H190.711V230.52H160.039V256.008H197.623V273H136.423V173.208H197.623ZM148.087 164.28L139.879 154.92L160.327 136.344H174.151L194.455 154.92L186.391 164.28L167.239 152.184L148.087 164.28ZM289.115 273H259.019L230.219 195.672C231.179 203.256 231.899 209.976 232.379 215.832C232.955 221.592 233.243 228.456 233.243 236.424V273H212.219V173.208H241.595L271.115 250.68C269.003 237.528 267.947 225.144 267.947 213.528V173.208H289.115V273ZM46.112 343.76C52.352 343.76 57.872 344.672 62.672 346.496C67.568 348.32 72.176 351.056 76.496 354.704L65.264 368.096C62.288 365.792 59.36 364.064 56.48 362.912C53.6 361.76 50.528 361.184 47.264 361.184C40.544 361.184 35.216 364.016 31.28 369.68C27.44 375.344 25.52 384.08 25.52 395.888C25.52 407.504 27.44 416.144 31.28 421.808C35.216 427.376 40.64 430.16 47.552 430.16C51.2 430.16 54.512 429.488 57.488 428.144C60.464 426.704 63.68 424.688 67.136 422.096L77.648 435.632C73.904 439.376 69.344 442.448 63.968 444.848C58.688 447.248 52.832 448.448 46.4 448.448C37.184 448.448 29.168 446.432 22.352 442.4C15.536 438.368 10.208 432.416 6.368 424.544C2.624 416.576 0.752 407.024 0.752 395.888C0.752 385.04 2.672 375.68 6.512 367.808C10.448 359.936 15.824 353.984 22.64 349.952C29.552 345.824 37.376 343.76 46.112 343.76ZM111.804 346.208V446H88.1881V346.208H111.804ZM182.936 446L177.752 424.544H148.664L143.624 446H119.144L149.24 346.208H177.896L207.992 446H182.936ZM152.696 407.408H173.72L163.208 363.344L152.696 407.408Z" fill="#F5F1FB"/>
</svg>
