<svg width="281" height="394" viewBox="0 0 281 394" fill="none" xmlns="http://www.w3.org/2000/svg">
<path d="M11.36 103V3.208H70.832L68.384 20.056H34.976V46.552H64.064V63.4H34.976V103H11.36ZM119.18 0.759995C133.388 0.759995 144.428 5.32 152.3 14.44C160.268 23.56 164.252 36.424 164.252 53.032C164.252 63.88 162.428 73.24 158.78 81.112C155.228 88.984 150.044 95.032 143.228 99.256C136.508 103.384 128.492 105.448 119.18 105.448C109.868 105.448 101.852 103.384 95.132 99.256C88.412 95.128 83.228 89.176 79.58 81.4C76.028 73.528 74.252 64.072 74.252 53.032C74.252 42.28 76.028 32.968 79.58 25.096C83.228 17.224 88.412 11.224 95.132 7.096C101.852 2.872 109.868 0.759995 119.18 0.759995ZM119.18 18.04C112.364 18.04 107.276 20.824 103.916 26.392C100.652 31.864 99.02 40.744 99.02 53.032C99.02 65.32 100.7 74.248 104.06 79.816C107.42 85.384 112.46 88.168 119.18 88.168C126.092 88.168 131.18 85.432 134.444 79.96C137.804 74.392 139.484 65.416 139.484 53.032C139.484 40.648 137.804 31.72 134.444 26.248C131.084 20.776 125.996 18.04 119.18 18.04ZM211.255 64.84H202.039V103H178.423V3.208H211.111C224.743 3.208 234.967 5.704 241.782 10.696C248.695 15.688 252.151 23.32 252.151 33.592C252.151 40.024 250.615 45.4 247.543 49.72C244.471 53.944 239.623 57.544 232.999 60.52L258.343 103H231.703L211.255 64.84ZM202.039 48.568H211.975C217.255 48.568 221.191 47.368 223.783 44.968C226.471 42.568 227.815 38.776 227.815 33.592C227.815 28.792 226.375 25.288 223.495 23.08C220.711 20.872 216.391 19.768 210.535 19.768H202.039V48.568ZM110.432 247H87.248L85.52 207.976C85.04 198.664 84.8 190.36 84.8 183.064C84.8 177.496 84.944 172.216 85.232 167.224L69.824 236.488H47.504L31.088 167.224C31.664 175.576 31.952 183.448 31.952 190.84C31.952 196.408 31.808 202.216 31.52 208.264L29.792 247H6.752L14.24 147.208H44.048L59.024 214.888L72.992 147.208H102.944L110.432 247ZM177.123 247L171.939 225.544H142.851L137.811 247H113.331L143.427 147.208H172.083L202.179 247H177.123ZM146.883 208.408H167.907L157.395 164.344L146.883 208.408ZM253.886 253.912C258.974 254.488 262.718 255.976 265.118 258.376C267.614 260.872 268.862 264.136 268.862 268.168C268.862 273.064 266.894 277.048 262.958 280.12C259.118 283.192 253.934 284.728 247.406 284.728C244.142 284.728 241.118 284.296 238.334 283.432C235.55 282.664 233.198 281.656 231.278 280.408L236.462 269.896C239.726 271.528 242.798 272.344 245.678 272.344C250.19 272.344 252.446 270.904 252.446 268.024C252.446 266.296 251.39 265.048 249.278 264.28C247.166 263.512 243.806 263.128 239.198 263.128L240.926 248.872C229.31 247.144 220.142 241.816 213.422 232.888C206.798 223.864 203.486 211.864 203.486 196.888C203.486 186.04 205.406 176.68 209.246 168.808C213.182 160.936 218.558 154.984 225.374 150.952C232.286 146.824 240.11 144.76 248.846 144.76C255.086 144.76 260.606 145.672 265.406 147.496C270.302 149.32 274.91 152.056 279.23 155.704L267.998 169.096C265.022 166.792 262.094 165.064 259.214 163.912C256.334 162.76 253.262 162.184 249.998 162.184C243.278 162.184 237.95 165.016 234.014 170.68C230.174 176.344 228.254 185.08 228.254 196.888C228.254 208.504 230.174 217.144 234.014 222.808C237.95 228.376 243.374 231.16 250.286 231.16C253.934 231.16 257.246 230.488 260.222 229.144C263.198 227.704 266.414 225.688 269.87 223.096L280.382 236.632C277.118 239.896 273.23 242.68 268.718 244.984C264.206 247.192 259.262 248.584 253.886 249.16V253.912ZM63.92 391L58.736 369.544H29.648L24.608 391H0.128L30.224 291.208H58.88L88.976 391H63.92ZM33.68 352.408H54.704L44.192 308.344L33.68 352.408ZM52.976 281.416C50.864 281.416 49.04 281.08 47.504 280.408C45.968 279.736 44.288 278.776 42.464 277.528C40.064 275.8 38.096 274.936 36.56 274.936C34.928 274.936 33.536 275.464 32.384 276.52C31.328 277.48 30.176 279.064 28.928 281.272L17.552 275.8C19.472 270.808 22.016 266.728 25.184 263.56C28.448 260.392 32.096 258.808 36.128 258.808C38.336 258.808 40.208 259.192 41.744 259.96C43.376 260.632 45.152 261.592 47.072 262.84C48.416 263.704 49.472 264.328 50.24 264.712C51.104 265.096 51.968 265.288 52.832 265.288C54.368 265.288 55.664 264.808 56.72 263.848C57.872 262.792 59.072 261.16 60.32 258.952L71.696 264.568C69.68 269.656 67.04 273.736 63.776 276.808C60.608 279.88 57.008 281.416 52.976 281.416ZM135.211 288.76C149.419 288.76 160.459 293.32 168.331 302.44C176.299 311.56 180.283 324.424 180.283 341.032C180.283 351.88 178.459 361.24 174.811 369.112C171.259 376.984 166.075 383.032 159.259 387.256C152.539 391.384 144.523 393.448 135.211 393.448C125.899 393.448 117.883 391.384 111.163 387.256C104.443 383.128 99.2593 377.176 95.6113 369.4C92.0592 361.528 90.2832 352.072 90.2832 341.032C90.2832 330.28 92.0592 320.968 95.6113 313.096C99.2593 305.224 104.443 299.224 111.163 295.096C117.883 290.872 125.899 288.76 135.211 288.76ZM135.211 306.04C128.395 306.04 123.307 308.824 119.947 314.392C116.683 319.864 115.051 328.744 115.051 341.032C115.051 353.32 116.731 362.248 120.091 367.816C123.451 373.384 128.491 376.168 135.211 376.168C142.123 376.168 147.211 373.432 150.475 367.96C153.835 362.392 155.515 353.416 155.515 341.032C155.515 328.648 153.835 319.72 150.475 314.248C147.115 308.776 142.027 306.04 135.211 306.04Z" fill="black"/>
</svg>
