<svg width="131" height="38" viewBox="0 0 131 38" fill="none" xmlns="http://www.w3.org/2000/svg">
<path d="M35.144 37H27.416L26.84 23.992C26.68 20.888 26.6 18.12 26.6 15.688C26.6 13.832 26.648 12.072 26.744 10.408L21.608 33.496H14.168L8.696 10.408C8.888 13.192 8.984 15.816 8.984 18.28C8.984 20.136 8.936 22.072 8.84 24.088L8.264 37H0.584L3.08 3.736H13.016L18.008 26.296L22.664 3.736H32.648L35.144 37Z" fill="#0A0A0B"/>
<path d="M59.9664 29.608C59.9664 30.568 60.0944 31.272 60.3504 31.72C60.6384 32.168 61.0864 32.504 61.6944 32.728L60.1104 37.672C58.5424 37.544 57.2624 37.208 56.2704 36.664C55.2784 36.088 54.5104 35.192 53.9664 33.976C52.3024 36.536 49.7424 37.816 46.2864 37.816C43.7584 37.816 41.7424 37.08 40.2384 35.608C38.7344 34.136 37.9824 32.216 37.9824 29.848C37.9824 27.064 39.0064 24.936 41.0544 23.464C43.1024 21.992 46.0624 21.256 49.9344 21.256H52.5264V20.152C52.5264 18.648 52.2064 17.624 51.5664 17.08C50.9264 16.504 49.8064 16.216 48.2064 16.216C47.3744 16.216 46.3664 16.344 45.1824 16.6C43.9984 16.824 42.7824 17.144 41.5344 17.56L39.8064 12.568C41.4064 11.96 43.0384 11.496 44.7024 11.176C46.3984 10.856 47.9664 10.696 49.4064 10.696C53.0544 10.696 55.7264 11.448 57.4224 12.952C59.1184 14.456 59.9664 16.712 59.9664 19.72V29.608ZM48.4944 32.392C50.2224 32.392 51.5664 31.576 52.5264 29.944V25.432H50.6544C48.9264 25.432 47.6304 25.736 46.7664 26.344C45.9344 26.952 45.5184 27.896 45.5184 29.176C45.5184 30.2 45.7744 31 46.2864 31.576C46.8304 32.12 47.5664 32.392 48.4944 32.392Z" fill="#0A0A0B"/>
<path d="M79.8313 10.792C80.7593 10.792 81.6073 10.904 82.3753 11.128L81.1752 18.472C80.2152 18.248 79.4473 18.136 78.8713 18.136C77.3673 18.136 76.2153 18.664 75.4153 19.72C74.6473 20.744 74.0392 22.296 73.5912 24.376V37H66.0072V11.512H72.6312L73.2552 16.456C73.8312 14.696 74.6953 13.32 75.8473 12.328C77.0313 11.304 78.3593 10.792 79.8313 10.792Z" fill="#0A0A0B"/>
<path d="M94.8597 10.696C96.6197 10.696 98.2037 10.952 99.6117 11.464C101.02 11.976 102.348 12.76 103.596 13.816L100.332 18.328C98.7317 17.112 97.1157 16.504 95.4837 16.504C93.7877 16.504 92.5078 17.128 91.6438 18.376C90.7798 19.624 90.3477 21.64 90.3477 24.424C90.3477 27.112 90.7798 29.016 91.6438 30.136C92.5078 31.256 93.7557 31.816 95.3877 31.816C96.2517 31.816 97.0358 31.688 97.7398 31.432C98.4438 31.144 99.2918 30.696 100.284 30.088L103.596 34.792C101.068 36.808 98.2038 37.816 95.0038 37.816C92.4118 37.816 90.1718 37.272 88.2838 36.184C86.3958 35.064 84.9397 33.512 83.9157 31.528C82.8917 29.512 82.3798 27.16 82.3798 24.472C82.3798 21.784 82.8917 19.4 83.9157 17.32C84.9397 15.24 86.3958 13.624 88.2838 12.472C90.1718 11.288 92.3637 10.696 94.8597 10.696Z" fill="#0A0A0B"/>
<path d="M114.372 0.567993V37H106.788V1.38399L114.372 0.567993ZM130.117 11.512L122.389 22.696L130.741 37H122.197L114.613 23.08L122.389 11.512H130.117Z" fill="#0A0A0B"/>
</svg>
